<?xml version="1.0" standalone="no"?>
<!DOCTYPE svg PUBLIC "-//W3C//DTD SVG 20010904//EN"
 "http://www.w3.org/TR/2001/REC-SVG-20010904/DTD/svg10.dtd">
<svg version="1.0" xmlns="http://www.w3.org/2000/svg"
 width="1029.000000pt" height="242.000000pt" viewBox="0 0 1029.000000 242.000000"
 preserveAspectRatio="xMidYMid meet">

<g transform="translate(0.000000,242.000000) scale(0.100000,-0.100000)"
fill="#000000" stroke="none">
<path d="M7170 1147 c0 -79 3 -146 6 -150 16 -16 34 8 34 47 l0 41 38 -42 c39
-42 79 -60 108 -49 27 10 12 40 -21 43 -19 1 -38 12 -52 30 l-22 28 25 26 c33
34 41 87 19 128 -15 29 -20 32 -55 30 -22 -2 -42 0 -46 4 -4 4 -13 7 -21 7
-10 0 -13 -31 -13 -143z m105 74 c14 -44 -23 -96 -55 -76 -14 9 -13 68 2 83
18 18 46 14 53 -7z"/>
<path d="M2968 1269 c-35 -20 -21 -40 25 -37 l42 3 0 -80 c0 -44 -2 -98 -5
-120 -4 -31 -2 -40 11 -43 24 -4 31 21 37 135 l5 101 44 -1 c45 0 75 16 58 32
-15 13 -197 22 -217 10z"/>
<path d="M4623 1256 c-26 -23 -28 -30 -31 -114 -4 -99 10 -137 53 -148 27 -7
80 18 89 41 19 50 -14 78 -36 31 -29 -65 -68 -32 -68 58 0 90 40 153 54 86 4
-23 10 -31 23 -28 40 8 1 98 -43 98 -7 0 -26 -11 -41 -24z"/>
<path d="M6248 1269 c-35 -20 -21 -40 25 -37 l42 3 0 -75 c0 -41 -3 -95 -5
-120 -4 -35 -2 -45 10 -45 23 0 39 61 39 152 l1 81 45 0 c47 -1 77 15 60 31
-15 13 -197 22 -217 10z"/>
<path d="M4123 1260 c-27 -11 -43 -40 -43 -76 0 -20 14 -40 55 -78 63 -58 71
-86 25 -86 -28 0 -30 2 -20 20 13 25 -1 56 -31 65 -26 9 -59 -20 -59 -50 0
-13 -7 -25 -15 -29 -8 -3 -12 -12 -9 -20 4 -10 29 -17 79 -21 86 -8 108 -3
123 31 16 34 -4 71 -63 119 -48 40 -57 68 -26 85 21 10 51 4 51 -11 0 -12 27
-12 34 0 10 15 -4 38 -30 50 -29 13 -41 13 -71 1z"/>
<path d="M4354 1230 c-45 -68 -45 -180 1 -226 30 -30 57 -30 90 -1 21 18 28
38 40 111 14 83 13 91 -2 110 -30 36 -46 46 -75 46 -21 0 -34 -9 -54 -40z m81
-10 c3 -5 -3 -10 -14 -10 -12 0 -21 5 -21 10 0 6 6 10 14 10 8 0 18 -4 21 -10z
m8 -59 c12 -11 -5 -101 -23 -124 -15 -18 -20 -19 -33 -8 -19 15 -32 90 -23
126 5 21 10 24 39 18 17 -3 35 -9 40 -12z"/>
<path d="M4832 1153 c4 -120 16 -163 45 -163 12 0 14 7 9 33 -4 17 -9 75 -12
127 -5 111 -8 120 -30 120 -15 0 -16 -13 -12 -117z"/>
<path d="M5053 1263 c-7 -3 -13 -17 -13 -31 0 -65 -13 -104 -36 -113 -27 -10
-32 -34 -9 -43 14 -5 14 -9 0 -35 -20 -39 -19 -51 3 -51 11 0 26 17 40 46 29
59 60 59 76 -1 16 -56 42 -54 38 3 -3 33 0 42 12 42 24 0 19 29 -6 39 -16 6
-31 29 -46 69 -24 64 -39 82 -59 75z m37 -135 c0 -5 -4 -8 -10 -8 -5 0 -10 10
-10 23 0 18 2 19 10 7 5 -8 10 -18 10 -22z"/>
<path d="M5349 1254 c-8 -9 -15 -52 -17 -104 -4 -84 -6 -89 -29 -94 -13 -4
-29 -18 -35 -32 -11 -23 -9 -29 11 -45 30 -24 46 -24 71 1 18 18 24 19 64 8
36 -9 48 -9 60 1 23 19 14 26 -50 40 l-57 13 6 109 c6 109 0 132 -24 103z"/>
<path d="M6564 1243 c4 -16 11 -72 15 -125 5 -73 12 -102 26 -117 23 -26 47
-27 70 -1 17 18 20 19 41 5 33 -21 50 -19 72 10 36 46 38 230 2 230 -12 0 -15
-18 -16 -91 -1 -50 -4 -96 -8 -102 -24 -39 -56 20 -56 101 0 31 -3 38 -17 35
-15 -3 -19 -17 -24 -76 -10 -137 -44 -114 -51 35 -4 92 -16 123 -45 123 -12 0
-14 -7 -9 -27z"/>
<path d="M6948 1253 c-31 -35 -48 -83 -48 -133 0 -114 62 -172 125 -117 21 18
28 38 40 112 15 88 14 89 -8 114 -12 14 -26 29 -32 33 -18 14 -62 8 -77 -9z
m62 -33 c0 -5 -7 -10 -15 -10 -8 0 -15 5 -15 10 0 6 7 10 15 10 8 0 15 -4 15
-10z m12 -59 c12 -11 -8 -111 -26 -129 -15 -15 -17 -15 -32 -1 -18 19 -29 86
-20 123 5 22 10 25 39 19 17 -3 35 -9 39 -12z"/>
<path d="M7427 1263 c-2 -4 -1 -69 2 -143 5 -118 8 -135 24 -138 12 -3 17 3
17 22 0 33 10 33 40 1 39 -42 100 -29 100 21 0 36 -11 54 -32 54 -17 0 -20 -5
-14 -30 3 -16 2 -30 -3 -30 -9 0 -71 66 -71 76 0 3 18 37 41 75 38 63 45 99
20 99 -5 0 -24 -26 -42 -57 l-33 -58 -11 54 c-9 50 -26 74 -38 54z"/>
<path d="M3343 1244 c-3 -8 -3 -40 0 -70 5 -53 4 -56 -28 -87 -45 -42 -54 -78
-26 -106 27 -27 46 -26 76 4 18 18 25 35 25 65 0 28 4 40 14 40 8 0 21 3 30 6
12 5 15 -5 18 -48 2 -41 7 -54 21 -56 14 -3 17 5 17 53 l0 57 33 -4 c26 -2 32
0 32 17 0 15 -8 21 -32 23 -32 3 -32 4 -35 60 -2 45 -7 58 -20 60 -16 3 -18
-5 -18 -57 0 -46 -3 -61 -14 -61 -8 0 -21 -3 -30 -6 -12 -5 -16 1 -16 22 0 56
-12 104 -27 104 -7 0 -16 -7 -20 -16z m7 -203 c0 -20 -23 -45 -33 -35 -7 8 14
54 25 54 4 0 8 -8 8 -19z"/>
<path d="M3607 1154 c2 -58 8 -115 14 -125 19 -37 114 -54 138 -26 15 19 4 27
-40 27 -45 0 -69 21 -69 60 0 25 4 29 33 32 20 2 32 8 32 18 0 10 -12 16 -32
18 -29 3 -33 7 -33 33 0 28 2 29 44 29 41 0 74 19 59 33 -3 4 -39 7 -78 7
l-71 0 3 -106z"/>
<path d="M5987 1161 c3 -116 13 -148 48 -161 37 -14 91 -12 104 3 15 19 4 27
-36 27 -53 0 -73 15 -73 55 0 31 3 34 33 37 42 4 43 31 2 38 -24 4 -31 11 -33
33 -3 26 -1 27 41 27 42 0 75 18 60 33 -3 4 -39 7 -78 7 l-72 0 4 -99z"/>
<path d="M5698 1243 c-2 -5 -2 -63 0 -130 3 -98 6 -123 17 -123 16 0 22 19 29
103 5 65 31 116 49 98 5 -5 13 -47 17 -93 8 -94 15 -115 41 -128 39 -21 53 -2
22 32 -11 12 -18 47 -24 109 -5 64 -12 96 -25 110 -18 20 -59 26 -69 9 -9 -15
-25 -12 -25 5 0 15 -26 21 -32 8z"/>
</g>
</svg>
